# xmcd CD database file
# Copyright (C) 1997 Ti Kan
# 
# Track frame offsets:
#     150
#     10035
#     20562
#     30290
#     41567
#     54272
#     64842
#     81482
#     91310
#     106945
#     121055
#     134137
#     148207
#     160850
#     172807
#     185185
#     218765
#     230210
# 
# Disc length: 3203 seconds
# 
# Revision: 1
# Processed by: cddbd v1.4b41PL1 Copyright (c) Steve Scherf et al.
# Submitted via: DiscPlay 4.0.4
# 
DISCID=f70c8112
DTITLE=Buddy Guy - Stone Crazy
DYEAR=1900
DGENRE=
TTITLE0=First Time I Met The Blues
TTITLE1=I Got My Eyes On You
TTITLE2=Slop Around
TTITLE3=Watch Yourself
TTITLE4=When My Left Eye Jumps
TTITLE5=Hard But It's Fair
TTITLE6=Every Girl I See
TTITLE7=Baby (Baby,Baby,Baby)
TTITLE8=Leave My Girl Alone
TTITLE9=Hully Gully
TTITLE10=Let Me Love You Baby
TTITLE11=I Got A Strange Feeling
TTITLE12=I Suffer With The Blues
TTITLE13=Ten Years Ago
TTITLE14=Mother-in-law Blues
TTITLE15=Stone Crazy
TTITLE16=No Lie
TTITLE17=$100 Bill
EXTD=
EXTT0=
EXTT1=
EXTT2=
EXTT3=
EXTT4=
EXTT5=
EXTT6=
EXTT7=
EXTT8=
EXTT9=
EXTT10=
EXTT11=
EXTT12=
EXTT13=
EXTT14=
EXTT15=
EXTT16=
EXTT17=
PLAYORDER=
